<svg xmlns="http://www.w3.org/2000/svg" viewBox="0 0 64 64">
  <defs>
    <linearGradient id="bg" x1="0" y1="0" x2="1" y2="1">
      <stop offset="0" stop-color="#23c16b" />
      <stop offset="1" stop-color="#14964f" />
    </linearGradient>
    <linearGradient id="chip" x1="0" y1="0" x2="0" y2="1">
      <stop offset="0" stop-color="#2f3b45" />
      <stop offset="1" stop-color="#1c252c" />
    </linearGradient>
  </defs>

  <rect x="7" y="10" width="50" height="44" rx="8" fill="url(#bg)" />
  <rect x="24" y="22" width="16" height="20" rx="2" fill="url(#chip)" />
  <circle cx="45" cy="18" r="3" fill="#ffd34f" />

  <g fill="#d8ffe8">
    <rect x="6" y="14" width="4" height="2" rx="1" />
    <rect x="6" y="19" width="4" height="2" rx="1" />
    <rect x="6" y="24" width="4" height="2" rx="1" />
    <rect x="6" y="29" width="4" height="2" rx="1" />
    <rect x="6" y="34" width="4" height="2" rx="1" />
    <rect x="6" y="39" width="4" height="2" rx="1" />
    <rect x="6" y="44" width="4" height="2" rx="1" />

    <rect x="54" y="14" width="4" height="2" rx="1" />
    <rect x="54" y="19" width="4" height="2" rx="1" />
    <rect x="54" y="24" width="4" height="2" rx="1" />
    <rect x="54" y="29" width="4" height="2" rx="1" />
    <rect x="54" y="34" width="4" height="2" rx="1" />
    <rect x="54" y="39" width="4" height="2" rx="1" />
    <rect x="54" y="44" width="4" height="2" rx="1" />
  </g>
</svg>
